<svg width="30" height="30" viewBox="0 0 30 30" fill="none" xmlns="http://www.w3.org/2000/svg">
<g clip-path="url(#clip0_20_7)">
<path d="M15.0045 0H14.9955C6.7137 0 0 6.7137 0 14.9955V15.0045C0 23.2863 6.7137 30 14.9955 30H15.0045C23.2863 30 30 23.2863 30 15.0045V14.9955C30 6.7137 23.2863 0 15.0045 0Z" fill="white"/>
<path d="M21.5492 24.8412H8.43946C6.62623 24.8412 5.14844 23.3634 5.14844 21.5501V8.44044C5.14844 6.6272 6.62623 5.14941 8.43946 5.14941H21.5492C23.3624 5.14941 24.8402 6.6272 24.8402 8.44044V21.5501C24.8402 23.3634 23.3624 24.8412 21.5492 24.8412ZM8.43946 6.22829C7.21553 6.22829 6.22731 7.22557 6.22731 8.44044V21.5501C6.22731 22.7741 7.22459 23.7623 8.43946 23.7623H21.5492C22.7731 23.7623 23.7613 22.765 23.7613 21.5501V8.44044C23.7613 7.2165 22.764 6.22829 21.5492 6.22829H8.43946Z" fill="#004E4F"/>
<path d="M14.9952 20.0538C13.6443 20.0538 12.375 19.528 11.4231 18.576C10.4712 17.6241 9.94531 16.3548 9.94531 15.004C9.94531 13.6531 10.4712 12.3838 11.4231 11.4319C12.375 10.4799 13.6443 9.9541 14.9952 9.9541C16.346 9.9541 17.6153 10.4799 18.5673 11.4319C19.5192 12.3838 20.045 13.6531 20.045 15.004C20.045 16.3548 19.5192 17.6241 18.5673 18.576C17.6153 19.528 16.346 20.0538 14.9952 20.0538ZM14.9952 11.0239C12.8012 11.0239 11.0242 12.81 11.0242 14.9949C11.0242 17.1799 12.8102 18.9659 14.9952 18.9659C17.1801 18.9659 18.9662 17.1799 18.9662 14.9949C18.9662 12.81 17.1801 11.0239 14.9952 11.0239Z" fill="#004E4F"/>
<path d="M22.237 7.88707C22.237 8.42198 21.8019 8.85716 21.267 8.85716C20.7321 8.85716 20.2969 8.42198 20.2969 7.88707C20.2969 7.35217 20.7321 6.91699 21.267 6.91699C21.8019 6.91699 22.237 7.35217 22.237 7.88707Z" fill="#004E4F"/>
</g>
<defs>
<clipPath id="clip0_20_7">
<rect width="30" height="30" fill="white"/>
</clipPath>
</defs>
</svg>
