<svg width="30" height="30" viewBox="0 0 30 30" fill="none" xmlns="http://www.w3.org/2000/svg">
<g clip-path="url(#clip0_20_17)">
<path d="M15.0045 0H14.9955C6.7137 0 0 6.7137 0 14.9955V15.0045C0 23.2863 6.7137 30 14.9955 30H15.0045C23.2863 30 30 23.2863 30 15.0045V14.9955C30 6.7137 23.2863 0 15.0045 0Z" fill="white"/>
<path d="M6.61031 24.8596L7.4172 20.4534C5.91221 18.7762 5.07812 16.6547 5.07812 14.4516C5.07812 13.1914 5.34104 11.9675 5.86688 10.8161C6.36552 9.70998 7.08175 8.7127 7.99744 7.85141C8.90405 6.99919 9.9648 6.32829 11.1434 5.86592C12.3583 5.38541 13.6547 5.14062 14.9875 5.14062C16.3202 5.14062 17.6167 5.38541 18.8315 5.86592C20.0101 6.33736 21.0709 6.99919 21.9775 7.85141C22.8932 8.70363 23.6094 9.70092 24.108 10.8161C24.6248 11.9675 24.8968 13.1914 24.8968 14.4516C24.8968 15.7118 24.6339 16.9357 24.108 18.0871C23.6094 19.1932 22.8932 20.1905 21.9775 21.0518C21.0709 21.904 20.0101 22.5749 18.8315 23.0373C17.6167 23.5178 16.3202 23.7626 14.9875 23.7626C13.5641 23.7626 12.1951 23.4815 10.9077 22.9375L6.60124 24.8596H6.61031ZM14.9965 6.22857C10.1371 6.22857 6.17513 9.9185 6.17513 14.4516C6.17513 16.4643 6.96389 18.4044 8.40541 19.9094L8.5958 20.1089L8.0609 23.0101L10.9167 21.7408L11.1434 21.8405C12.3492 22.3845 13.6457 22.6656 14.9965 22.6656C19.856 22.6656 23.8179 18.9756 23.8179 14.4425C23.8179 9.90944 19.8651 6.2195 14.9965 6.2195V6.22857Z" fill="#004E4F"/>
<path d="M19.9362 16.7454C19.6552 16.555 19.3197 16.4644 19.0115 16.3012C18.5854 16.0927 18.2862 15.9567 18.0595 15.8751C17.9145 15.8207 17.5971 15.6847 17.4793 15.7753C17.1257 16.0655 16.7449 16.8905 16.3369 17.0446C15.3306 16.8451 14.4058 16.1561 13.6805 15.458C13.3542 15.1498 12.7649 14.2794 12.6289 14.0437C12.6107 13.7989 13.0369 13.4816 13.1366 13.2912C13.6352 12.72 13.2544 12.3755 13.191 12.1307C13.0822 11.8859 12.8827 11.4508 12.7105 11.0972C12.5654 10.8615 12.5382 10.5169 12.2662 10.381C11.1602 9.80979 10.5346 10.9431 10.2717 11.5414C8.71228 15.2948 18.0958 22.4571 19.9997 17.5342C20.0994 17.099 20.0631 16.9449 19.909 16.7454H19.9362Z" fill="#004E4F"/>
</g>
<defs>
<clipPath id="clip0_20_17">
<rect width="30" height="30" fill="white"/>
</clipPath>
</defs>
</svg>
