<svg width="30" height="30" viewBox="0 0 30 30" fill="none" xmlns="http://www.w3.org/2000/svg">
<g clip-path="url(#clip0_20_13)">
<path d="M15.0045 0H14.9955C6.7137 0 0 6.7137 0 14.9955V15.0045C0 23.2863 6.7137 30 14.9955 30H15.0045C23.2863 30 30 23.2863 30 15.0045V14.9955C30 6.7137 23.2863 0 15.0045 0Z" fill="white"/>
<path d="M22.4661 8.15918H7.53412C5.54129 8.15918 3.92578 9.77469 3.92578 11.7675V18.2317C3.92578 20.2245 5.54129 21.84 7.53412 21.84H22.4661C24.459 21.84 26.0745 20.2245 26.0745 18.2317V11.7675C26.0745 9.77469 24.459 8.15918 22.4661 8.15918Z" fill="#004E4F"/>
<path d="M17.8691 14.995L12.1211 11.6768V18.3223L17.8691 14.995Z" fill="white"/>
</g>
<defs>
<clipPath id="clip0_20_13">
<rect width="30" height="30" fill="white"/>
</clipPath>
</defs>
</svg>
